<?xml version="1.0" standalone="no"?>
<!DOCTYPE svg PUBLIC "-//W3C//DTD SVG 20010904//EN"
 "http://www.w3.org/TR/2001/REC-SVG-20010904/DTD/svg10.dtd">
<svg version="1.0" xmlns="http://www.w3.org/2000/svg"
 width="1033.000000pt" height="1280.000000pt" viewBox="0 0 1033.000000 1280.000000"
 preserveAspectRatio="xMidYMid meet">

<g transform="translate(0.000000,1280.000000) scale(0.100000,-0.100000)"
fill="#000000" stroke="none">
<path d="M7 12793 c-4 -3 -7 -2883 -7 -6400 l0 -6393 5165 0 5165 0 0 6400 0
6400 -5158 0 c-2837 0 -5162 -3 -5165 -7z m9103 -1438 l0 -465 -1630 0 c-1235
0 -1630 3 -1630 12 0 6 -2 9 -5 6 -7 -7 36 -161 69 -251 34 -90 98 -216 152
-300 l44 -68 -507 4 c-312 3 -429 2 -303 -3 113 -4 311 -8 440 -9 129 0 265
-4 302 -7 l67 -7 -29 -36 c-16 -20 -51 -73 -78 -118 -27 -45 -53 -79 -57 -75
-5 4 -5 1 -1 -6 4 -7 -4 -33 -18 -58 -14 -26 -26 -52 -26 -58 1 -6 8 1 16 17
l15 27 1589 0 1590 0 0 -465 0 -465 -3945 0 -3945 0 0 465 0 465 1476 0 1475
0 14 -34 c28 -67 67 -212 78 -293 10 -73 14 -83 32 -83 11 0 67 -11 124 -25
191 -47 399 -142 544 -252 31 -23 61 -43 66 -43 4 0 43 23 86 52 163 107 419
206 593 229 88 12 90 13 96 42 9 46 5 66 -5 28 -10 -32 -11 -32 -29 -16 -11
10 -17 22 -14 27 3 4 0 7 -8 6 -7 -2 -12 4 -10 12 2 8 0 12 -4 7 -9 -9 -85 63
-78 74 2 4 -1 11 -7 15 -8 5 -10 2 -4 -7 4 -8 -12 6 -35 31 -23 25 -103 107
-177 182 -122 124 -134 140 -122 155 12 16 12 17 -2 6 -13 -10 -30 2 -107 80
-51 51 -89 97 -85 102 4 4 3 5 -4 1 -15 -8 -26 10 -27 46 -1 19 8 38 26 55 14
14 25 30 24 37 -2 6 -1 8 1 4 8 -14 25 -8 20 6 -3 8 2 20 11 28 11 9 14 10 8
1 -4 -7 -4 -13 -1 -13 11 0 454 432 452 440 -1 4 2 8 6 8 14 0 67 54 62 62 -3
4 3 14 12 21 12 10 14 10 9 2 -16 -28 12 -11 54 32 38 39 46 43 52 28 5 -14 7
-12 7 8 1 24 -3 27 -46 34 -72 10 -216 52 -311 90 -47 19 -90 32 -96 28 -6 -3
-8 -2 -3 2 4 5 -25 26 -64 47 -60 32 -74 37 -88 26 -14 -11 -14 -11 -4 2 10
13 8 18 -8 28 -11 7 -25 10 -31 6 -6 -4 -8 -3 -5 3 7 10 -45 54 -69 57 -7 1
-17 6 -21 11 -4 4 -1 5 7 0 11 -6 11 -3 -2 10 -16 17 -18 16 -55 -12 -148
-116 -441 -235 -648 -264 l-82 -12 -13 -71 c-7 -39 -16 -81 -21 -93 l-9 -23
-1520 0 -1520 0 0 465 0 465 3945 0 3945 0 0 -465z m-4003 -40 c0 -8 -4 -12
-9 -9 -5 3 -6 10 -3 15 9 13 12 11 12 -6z m573 -261 c0 -2 -9 0 -20 6 -11 6
-20 13 -20 16 0 2 9 0 20 -6 11 -6 20 -13 20 -16z m17 -86 c-3 -8 -6 -5 -6 6
-1 11 2 17 5 13 3 -3 4 -12 1 -19z m-60 -25 c-4 -3 -2 -12 4 -19 7 -8 6 -14
-2 -20 -7 -4 -9 -3 -5 4 3 6 2 13 -4 17 -10 6 -5 25 7 25 4 0 3 -3 0 -7z m-42
-103 c-17 -18 -45 -21 -47 -4 -1 12 43 34 55 27 4 -3 1 -13 -8 -23z m-45 -44
c0 -2 -8 -10 -17 -17 -16 -13 -17 -12 -4 4 13 16 21 21 21 13z m-60 -56 c0 -5
-5 -10 -11 -10 -5 0 -7 5 -4 10 3 6 8 10 11 10 2 0 4 -4 4 -10z m-63 -55 c0
-8 -14 -27 -31 -42 l-31 -28 29 33 c17 17 26 32 22 32 -4 0 -4 5 -1 10 9 14
12 13 12 -5z m-203 -133 c3 -5 -1 -9 -9 -9 -8 0 -12 4 -9 9 3 4 7 8 9 8 2 0 6
-4 9 -8z m20 -52 c-6 -6 -10 -3 -10 10 0 13 4 16 10 10 7 -7 7 -13 0 -20z
m-111 -35 c-3 -9 -8 -14 -10 -11 -3 3 -2 9 2 15 9 16 15 13 8 -4z m-57 -157
c3 -26 -22 -44 -41 -28 -18 15 -19 36 -2 43 21 9 40 3 43 -15z m66 -1654 c136
-103 443 -238 593 -259 76 -12 95 -21 95 -49 0 -25 23 -141 41 -208 l10 -38
1614 0 1615 0 0 -465 0 -465 -1618 0 -1619 0 -26 -87 c-15 -47 -32 -116 -38
-153 l-12 -68 -116 -21 c-201 -38 -401 -118 -566 -225 l-85 -56 -68 49 c-174
126 -442 241 -619 267 -59 8 -73 19 -73 55 0 26 -18 113 -41 202 l-10 37
-1499 0 -1500 0 0 465 0 465 1504 0 1505 0 26 83 c14 45 31 115 37 155 11 67
13 72 36 72 43 0 253 51 336 81 115 42 292 133 351 179 28 21 51 39 52 39 1 1
35 -24 75 -55z m3968 -2879 l0 -465 -1590 0 c-1163 0 -1590 -3 -1590 -11 0
-23 99 -216 145 -283 32 -46 45 -73 39 -82 -118 -162 -189 -294 -247 -456
l-35 -98 1639 0 1639 0 0 -465 0 -465 -3945 0 -3945 0 0 465 0 465 1515 0
1515 0 6 -25 c3 -14 9 -48 13 -76 l6 -52 130 -32 c208 -52 413 -144 553 -250
l69 -52 74 50 c161 108 397 202 590 235 l98 16 -72 76 c-39 41 -189 197 -333
345 -144 149 -272 281 -285 295 -13 14 -35 25 -49 25 -20 0 -26 6 -28 28 -2
18 2 29 12 33 13 5 16 26 16 123 0 64 5 293 11 509 7 216 10 394 7 397 -3 3
-36 -15 -74 -40 -165 -109 -390 -198 -584 -232 l-104 -19 -17 -87 c-20 -99
-39 -161 -81 -264 l-30 -73 -1479 0 -1479 0 0 465 0 465 3945 0 3945 0 0 -465z
m-4649 -192 c13 -16 12 -17 -3 -4 -17 13 -22 21 -14 21 2 0 10 -8 17 -17z
m-1651 -3538 l0 -465 -795 0 -795 0 0 465 0 465 795 0 795 0 0 -465z m460
-215 l0 -680 -85 0 -85 0 0 680 0 680 85 0 85 0 0 -680z m202 400 l3 -280 74
97 c41 54 137 180 213 281 l139 182 105 0 105 0 -143 -187 c-309 -408 -350
-463 -345 -476 3 -6 43 -60 88 -118 46 -59 131 -169 189 -244 58 -76 140 -182
183 -236 l77 -99 -108 0 -108 0 -185 236 c-101 130 -206 265 -234 300 l-50 64
-3 -300 -2 -300 -80 0 -80 0 0 680 0 680 80 0 80 0 2 -280z m869 238 c-17 -24
-76 -101 -131 -173 -282 -366 -332 -434 -324 -447 4 -7 64 -85 133 -173 68
-88 147 -189 175 -225 27 -36 82 -105 121 -155 39 -49 79 -102 89 -117 l18
-28 -110 0 c-109 0 -110 0 -128 28 -10 15 -22 32 -28 39 -6 6 -42 53 -81 103
-68 90 -241 314 -350 455 -29 39 -54 75 -55 80 -1 6 108 155 242 332 l243 323
108 0 108 0 -30 -42z m977 9 c110 -38 178 -83 272 -177 104 -104 152 -188 181
-322 69 -310 -89 -625 -386 -768 -105 -51 -177 -64 -322 -58 -97 4 -131 10
-188 32 -99 38 -185 97 -264 182 -125 134 -181 279 -181 469 0 201 58 344 195
480 59 59 103 92 163 123 112 59 179 72 332 69 104 -3 137 -8 198 -30z m1596
-139 c37 -95 129 -327 204 -515 l136 -343 78 0 78 0 0 -255 0 -255 -75 0 -75
0 0 185 0 185 -73 0 -73 0 -16 48 c-25 73 -67 185 -78 207 -6 11 -19 45 -29
75 -37 104 -71 195 -81 215 -6 11 -19 45 -29 75 -11 30 -36 98 -56 150 -20 52
-50 132 -66 178 l-31 83 -111 -3 -110 -3 -187 -469 c-103 -258 -195 -488 -205
-512 l-18 -43 -61 -3 -61 -3 -3 -182 -2 -183 -70 0 -70 0 0 255 0 255 79 0 78
0 58 148 c32 81 66 165 75 187 9 22 75 187 146 367 l129 328 226 0 225 0 68
-172z m1758 -120 c64 -161 156 -393 204 -515 l87 -223 79 0 78 0 0 -255 0
-255 -75 0 -75 0 0 185 0 184 -72 3 -73 3 -38 100 c-21 55 -60 159 -87 230
-27 72 -76 202 -110 290 -33 88 -82 215 -107 283 l-46 123 -109 -3 -109 -3
-19 -45 c-11 -25 -78 -193 -150 -375 -72 -181 -135 -339 -140 -350 -5 -11 -29
-72 -54 -135 l-45 -115 -63 -5 -63 -5 -3 -182 -2 -183 -70 0 -70 0 0 255 0
255 79 0 78 0 61 153 c33 83 122 307 197 497 76 190 141 353 146 363 9 15 30
17 232 17 l223 0 116 -292z m-1902 -75 c123 -318 310 -805 310 -810 0 -2 -212
-3 -471 -3 l-470 0 7 23 c4 12 26 69 49 127 24 58 77 191 119 295 42 105 81
199 86 210 5 11 32 76 59 145 27 69 57 142 65 163 l16 37 79 0 78 0 73 -187z
m1658 135 c11 -29 36 -96 57 -148 20 -52 47 -122 60 -155 12 -33 41 -107 63
-165 23 -58 62 -159 87 -225 26 -66 57 -148 71 -182 13 -34 24 -64 24 -67 0
-3 -211 -6 -470 -6 -258 0 -470 2 -470 6 0 6 225 567 240 599 5 11 42 101 81
200 39 99 73 183 76 188 2 4 40 7 83 7 l79 0 19 -52z m-1208 -1143 l0 -165
-70 0 -70 0 0 90 0 90 -465 0 -465 0 0 -90 0 -90 -70 0 -70 0 0 165 0 165 605
0 605 0 0 -165z m1720 0 l0 -165 -75 0 -75 0 0 90 0 90 -460 0 -460 0 0 -90 0
-90 -75 0 -75 0 0 165 0 165 610 0 610 0 0 -165z"/>
<path d="M5832 10950 c0 -14 2 -19 5 -12 2 6 2 18 0 25 -3 6 -5 1 -5 -13z"/>
<path d="M5875 9870 c3 -5 8 -10 11 -10 2 0 4 5 4 10 0 6 -5 10 -11 10 -5 0
-7 -4 -4 -10z"/>
<path d="M5845 9859 c-5 -7 -4 -10 3 -5 16 10 25 -13 12 -29 -7 -8 -10 -15 -7
-15 9 0 -15 -64 -26 -71 -5 -4 -6 -13 -2 -20 6 -8 17 11 32 56 20 59 21 71 9
83 -11 11 -15 11 -21 1z"/>
<path d="M5616 9748 c3 -5 10 -6 15 -3 13 9 11 12 -6 12 -8 0 -12 -4 -9 -9z"/>
<path d="M5806 9693 c5 -5 12 -12 16 -18 4 -6 8 -2 8 8 0 9 -7 17 -17 17 -9 0
-12 -3 -7 -7z"/>
<path d="M5703 9653 c0 -9 4 -10 14 -2 7 6 13 12 13 14 0 1 -6 2 -13 2 -8 0
-14 -6 -14 -14z"/>
<path d="M5801 9663 c0 -4 4 -17 9 -28 8 -19 9 -19 9 2 1 12 -3 25 -9 28 -5 3
-10 3 -9 -2z"/>
<path d="M5573 10850 c-13 -5 -23 -11 -23 -14 0 -8 30 0 42 12 14 14 11 14
-19 2z"/>
<path d="M4970 2354 c-178 -47 -312 -185 -355 -365 -21 -90 -19 -220 5 -313
61 -240 277 -394 524 -373 98 9 161 30 235 77 158 102 245 271 240 465 -4 153
-53 270 -156 372 -129 128 -323 182 -493 137z m237 -34 c119 -28 253 -132 307
-237 77 -152 76 -343 -1 -497 -46 -90 -147 -183 -243 -220 -258 -102 -530 42
-614 324 -21 71 -21 229 0 301 48 162 178 294 321 328 52 12 179 13 230 1z"/>
<path d="M5002 2170 c-47 -11 -108 -54 -142 -102 -47 -64 -63 -134 -58 -252 6
-153 53 -243 160 -301 47 -26 63 -30 138 -30 69 0 94 5 134 24 67 33 113 82
150 160 28 60 31 75 30 166 0 90 -3 107 -30 165 -38 81 -105 144 -177 165 -53
16 -150 18 -205 5z"/>
<path d="M6601 2099 c-5 -13 -61 -154 -125 -313 -64 -160 -116 -293 -116 -298
0 -4 111 -8 246 -8 230 0 246 1 239 18 -3 9 -27 73 -52 142 -25 69 -61 166
-80 215 -19 50 -47 128 -63 174 -17 46 -32 86 -35 89 -2 3 -9 -6 -14 -19z"/>
<path d="M8282 2023 c-59 -140 -212 -528 -212 -536 0 -4 110 -7 245 -7 135 0
245 1 245 3 0 5 -60 170 -75 207 -8 19 -47 123 -86 230 -39 107 -73 196 -74
198 -1 1 -21 -41 -43 -95z"/>
</g>
</svg>
